<svg xmlns="http://www.w3.org/2000/svg" viewBox="0 0 101 101"><path d="M50.5 84.6c18.8 0 34.1-15.3 34.1-34.1S69.3 16.4 50.5 16.4 16.4 31.7 16.4 50.5s15.3 34.1 34.1 34.1zm0-63.4c16.1 0 29.3 13.1 29.3 29.3S66.6 79.8 50.5 79.8 21.2 66.6 21.2 50.5s13.2-29.3 29.3-29.3z"/><path d="M37.7 63c.5.5 1.1.7 1.7.7s1.2-.2 1.7-.7l9.4-9.4 9.4 9.4c.5.5 1.1.7 1.7.7s1.2-.2 1.7-.7c.9-.9.9-2.5 0-3.4l-9.4-9.4 9.4-9.4c.9-.9.9-2.5 0-3.4s-2.5-.9-3.4 0l-9.4 9.4-9.4-9.4c-.9-.9-2.5-.9-3.4 0s-.9 2.5 0 3.4l9.4 9.4-9.4 9.4c-.9.9-.9 2.4 0 3.4z"/></svg>