<svg xmlns="http://www.w3.org/2000/svg" viewBox="0 0 24 24"><path fill="#303c42" d="M12.5 6.001c.035 0 .07-.003.104-.011C15.218 5.433 17.025 3.173 17 .496a.495.495 0 0 0-.188-.385.494.494 0 0 0-.417-.099C13.782.569 11.975 2.829 12 5.506a.497.497 0 0 0 .5.495z"/><path fill="#fff" d="M12.344 5.85C12.319 3.173 14.126.913 16.74.356a.479.479 0 0 1 .229.006.49.49 0 0 0-.156-.251.494.494 0 0 0-.417-.099C13.782.569 11.975 2.829 12 5.506c.001.15.07.292.187.385.055.044.12.071.187.089-.012-.043-.03-.085-.03-.13z" opacity=".2"/><path fill="#303c42" d="M21.67 16.531c-1.835-.664-2.67-2.555-2.67-4.03 0-1.587.826-3.027 2.21-3.852a.502.502 0 0 0 .115-.765C19.746 6.136 17.615 6 17 6c-.975 0-1.671.264-2.343.52-.652.248-1.267.481-2.157.481s-1.505-.233-2.157-.481C9.671 6.265 8.975 6 8 6c-.614 0-6 .196-6 7 0 5.565 3.796 11 6 11 1.349 0 2.125-.315 2.81-.594.535-.217.998-.405 1.69-.405s1.155.188 1.69.405c.685.278 1.461.594 2.81.594 1.791 0 3.9-3.527 4.976-6.845a.5.5 0 0 0-.306-.624z"/><path fill="#fff" d="M2.354 13.355c0-6.804 5.386-7 6-7 .975 0 1.671.264 2.343.52.651.248 1.267.481 2.157.481s1.505-.233 2.157-.481c.672-.255 1.368-.52 2.343-.52.574 0 2.46.136 3.993 1.568-.009-.012-.012-.028-.022-.039C19.746 6.136 17.615 6 17 6c-.975 0-1.671.264-2.343.52-.652.248-1.267.481-2.157.481s-1.505-.233-2.157-.481C9.671 6.265 8.975 6 8 6c-.614 0-6 .196-6 7 0 4.053 2.014 8.028 3.96 9.893-1.828-1.986-3.606-5.731-3.606-9.538z" opacity=".2"/><linearGradient id="a" x1="3.365" x2="22.332" y1="7.918" y2="16.762" gradientUnits="userSpaceOnUse"><stop offset="0" stop-color="#fff" stop-opacity=".2"/><stop offset="1" stop-color="#fff" stop-opacity="0"/></linearGradient><path fill="url(#a)" d="M12.5 6.001c.035 0 .07-.003.104-.011C15.218 5.433 17.025 3.173 17 .496a.495.495 0 0 0-.188-.385.494.494 0 0 0-.417-.099C13.782.569 11.975 2.829 12 5.506a.497.497 0 0 0 .5.495zm9.17 10.53c-1.835-.664-2.67-2.555-2.67-4.03 0-1.587.826-3.027 2.21-3.852a.502.502 0 0 0 .115-.765C19.746 6.136 17.615 6 17 6c-.975 0-1.671.264-2.343.52-.652.248-1.267.481-2.157.481s-1.505-.233-2.157-.481C9.671 6.265 8.975 6 8 6c-.614 0-6 .196-6 7 0 5.565 3.796 11 6 11 1.349 0 2.125-.315 2.81-.594.535-.217.998-.405 1.69-.405s1.155.188 1.69.405c.685.279 1.461.594 2.81.594 1.791 0 3.9-3.527 4.976-6.845a.5.5 0 0 0-.306-.624z"/></svg>