<svg width="286" height="250" viewBox="0 0 286 250" fill="none" xmlns="http://www.w3.org/2000/svg">
<path d="M21.8794 161.255C22.1183 162.941 21.9171 163.577 22.1389 164.207C46.0344 202.464 79.4574 228.107 124.038 237.307C135.29 239.659 146.917 239.047 158.291 235.906C182.728 229.384 199.317 208.631 200.389 183.483C201.022 170.38 199.336 157.737 191.959 146.453C185.811 145.708 179.666 145.175 173.935 144.001C164.593 142.041 156.9 137.309 152.106 128.728C148.407 122.453 148.304 116.12 151.633 112.687C156.003 108.181 161.926 108.085 166.835 110.75C173.666 114.44 180.087 118.982 186.088 123.741C189.947 126.846 193.189 131.017 196.423 134.766C220.267 130.788 230.053 108.033 219.672 81.1711C216.274 80.3816 212.664 79.5955 209.263 78.595C196.714 74.5754 187.069 66.9187 182.421 54.3236C180.65 49.4954 179.93 44.2276 184.303 39.933C187.636 36.7111 193.558 36.6148 199.536 39.8965C208.932 45.2344 215.623 53.3615 221.478 62.1358C223.433 65.2716 225.389 68.4075 227.132 71.5468C264.08 66.7226 289.77 33.1501 274.435 0.878151C277.188 1.04457 279.511 0.795608 280.794 1.61946C282.292 2.651 283.176 4.95958 283.63 6.85279C287.306 24.7431 285.462 41.4561 272.57 55.3921C263.009 65.8953 251.277 73.0549 237.815 77.9197C235.921 78.584 234.028 79.2483 232.138 80.1237C231.926 80.1272 231.722 80.5528 231.101 81.4076C231.343 83.3042 231.381 85.6266 231.842 87.942C236.744 116.16 229.369 131.062 203.142 144.582C204.029 147.101 204.923 150.043 206.026 152.771C211.789 168.938 212.477 185.187 207.245 201.744C198.797 228.701 176.022 246.388 146.863 248.762C131.016 250.076 115.742 247.579 100.843 242.119C64.8693 228.766 36.3662 206.423 17.4078 172.52C16.3228 170.848 15.4458 168.962 14.3607 167.29C14.1457 167.083 13.7193 166.878 12.4398 166.266C10.8644 173.471 11.6088 180.217 12.1417 186.966C12.4596 193.507 13.204 200.253 13.7437 207.424C8.23383 206.88 6.07058 203.959 4.74311 200.39C3.40531 196.188 1.64451 191.994 1.36434 187.775C0.755963 176.381 0.355639 164.773 0.801456 153.151C1.28843 144.062 6.11226 141.45 13.5807 145.341C29.374 153.742 45.1708 162.355 60.9676 170.967C63.5298 172.404 65.6759 174.27 68.675 176.544C64.0867 180.631 60.6749 178.997 57.4781 177.571C45.9598 171.845 34.4518 166.753 21.8794 161.255ZM190.751 46.1634C192.892 60.6999 202.346 69.6268 215.471 70.0469C208.968 60.4385 203.105 51.242 190.751 46.1634ZM159.126 118.056C162.289 130.464 170.846 136.237 183.729 134.761C176.83 126.848 170.371 119.984 159.126 118.056Z" fill="#0D1927"/>
</svg>
